<svg xmlns="http://www.w3.org/2000/svg" xmlns:xlink="http://www.w3.org/1999/xlink" width="500" zoomAndPan="magnify" viewBox="0 0 375 374.999991" height="500" preserveAspectRatio="xMidYMid meet" version="1.0"><defs><g/><clipPath id="c85ea4d7f9"><path d="M 140 148.085938 L 218 148.085938 L 218 213 L 140 213 Z M 140 148.085938 " clip-rule="nonzero"/></clipPath><clipPath id="5070932e83"><path d="M 158.382812 190 L 218.816406 190 L 218.816406 226.460938 L 158.382812 226.460938 Z M 158.382812 190 " clip-rule="nonzero"/></clipPath><clipPath id="1ba6bcf5cb"><path d="M 113.714844 153 L 244.964844 153 L 244.964844 226 L 113.714844 226 Z M 113.714844 153 " clip-rule="nonzero"/></clipPath></defs><g clip-path="url(#c85ea4d7f9)"><path fill="#bbeeee" d="M 151.382812 211.390625 C 145.902344 204.957031 142.566406 196.632812 142.566406 187.527344 C 142.566406 167.214844 159.09375 150.691406 179.40625 150.691406 C 196.851562 150.691406 211.480469 162.90625 215.257812 179.226562 C 215.882812 178.804688 216.5 178.394531 217.09375 177.984375 C 212.824219 161.128906 197.5625 148.597656 179.40625 148.597656 C 157.933594 148.597656 140.472656 166.066406 140.472656 187.527344 C 140.472656 196.859375 143.777344 205.429688 149.269531 212.140625 C 149.96875 211.90625 150.675781 211.648438 151.382812 211.390625 " fill-opacity="1" fill-rule="nonzero"/></g><g clip-path="url(#5070932e83)"><path fill="#bbeeee" d="M 179.40625 224.367188 C 172.734375 224.367188 166.492188 222.558594 161.082031 219.449219 C 160.25 219.777344 159.441406 220.085938 158.621094 220.394531 C 164.632812 224.210938 171.757812 226.460938 179.40625 226.460938 C 199.902344 226.460938 216.714844 210.519531 218.191406 190.390625 C 217.453125 190.863281 216.722656 191.335938 215.964844 191.808594 C 213.839844 210.109375 198.257812 224.367188 179.40625 224.367188 " fill-opacity="1" fill-rule="nonzero"/></g><g clip-path="url(#1ba6bcf5cb)"><path fill="#bbeeee" d="M 244.613281 156.5625 C 241.738281 150.792969 227.316406 153.679688 215.738281 157.105469 C 215.050781 157.3125 214.660156 158.03125 214.867188 158.707031 C 215.070312 159.394531 215.78125 159.785156 216.46875 159.578125 C 233.679688 154.46875 241.140625 155.382812 242.3125 157.722656 C 243.523438 160.125 239.59375 166.835938 224.546875 177.851562 C 214.136719 185.496094 200.242188 193.78125 185.417969 201.191406 C 171.101562 208.355469 157.164062 214.144531 145.121094 217.941406 C 126 224.007812 117.757812 223.207031 116.496094 220.679688 C 115.265625 218.21875 119.371094 211.320312 135.035156 199.988281 C 135.609375 199.578125 135.742188 198.769531 135.320312 198.191406 C 134.898438 197.617188 134.097656 197.484375 133.523438 197.90625 C 123.035156 205.492188 111.167969 215.804688 114.199219 221.832031 C 115.386719 224.222656 118.519531 225.15625 122.65625 225.15625 C 129.140625 225.15625 138.101562 222.867188 145.902344 220.394531 C 158.066406 216.566406 172.128906 210.714844 186.570312 203.5 C 201.511719 196.027344 215.542969 187.652344 226.074219 179.933594 C 236.164062 172.542969 247.589844 162.484375 244.613281 156.5625 " fill-opacity="1" fill-rule="nonzero"/></g><g fill="#bbeeee" fill-opacity="1"><g transform="translate(9.405766, 192.460427)"><g><path d="M 2.796875 0.265625 C 2.378906 0.265625 2.046875 0.171875 1.796875 -0.015625 C 1.554688 -0.210938 1.414062 -0.472656 1.375 -0.796875 C 1.332031 -1.117188 1.40625 -1.488281 1.59375 -1.90625 L 12.265625 -26.203125 C 12.503906 -26.722656 12.785156 -27.09375 13.109375 -27.3125 C 13.429688 -27.53125 13.785156 -27.640625 14.171875 -27.640625 C 14.554688 -27.640625 14.910156 -27.53125 15.234375 -27.3125 C 15.554688 -27.09375 15.820312 -26.722656 16.03125 -26.203125 L 26.75 -1.90625 C 26.957031 -1.488281 27.039062 -1.109375 27 -0.765625 C 26.96875 -0.429688 26.832031 -0.175781 26.59375 0 C 26.363281 0.175781 26.039062 0.265625 25.625 0.265625 C 25.15625 0.265625 24.78125 0.144531 24.5 -0.09375 C 24.21875 -0.34375 23.984375 -0.703125 23.796875 -1.171875 L 20.921875 -7.796875 L 22.484375 -6.984375 L 5.78125 -6.984375 L 7.375 -7.796875 L 4.546875 -1.171875 C 4.304688 -0.671875 4.054688 -0.304688 3.796875 -0.078125 C 3.546875 0.148438 3.210938 0.265625 2.796875 0.265625 Z M 14.140625 -23.640625 L 7.875 -8.9375 L 6.953125 -9.671875 L 21.3125 -9.671875 L 20.46875 -8.9375 L 14.21875 -23.640625 Z M 14.140625 -23.640625 "/></g></g></g><g fill="#bbeeee" fill-opacity="1"><g transform="translate(37.711402, 192.460427)"><g><path d="M 12.234375 0.34375 C 11.015625 0.34375 9.820312 0.238281 8.65625 0.03125 C 7.488281 -0.164062 6.40625 -0.457031 5.40625 -0.84375 C 4.414062 -1.238281 3.519531 -1.734375 2.71875 -2.328125 C 2.40625 -2.554688 2.191406 -2.820312 2.078125 -3.125 C 1.960938 -3.425781 1.9375 -3.722656 2 -4.015625 C 2.0625 -4.316406 2.1875 -4.570312 2.375 -4.78125 C 2.570312 -4.988281 2.8125 -5.101562 3.09375 -5.125 C 3.382812 -5.15625 3.695312 -5.066406 4.03125 -4.859375 C 5.195312 -4.023438 6.441406 -3.421875 7.765625 -3.046875 C 9.085938 -2.671875 10.578125 -2.484375 12.234375 -2.484375 C 14.554688 -2.484375 16.28125 -2.914062 17.40625 -3.78125 C 18.539062 -4.65625 19.109375 -5.800781 19.109375 -7.21875 C 19.109375 -8.382812 18.695312 -9.296875 17.875 -9.953125 C 17.0625 -10.617188 15.695312 -11.144531 13.78125 -11.53125 L 9.75 -12.34375 C 7.3125 -12.863281 5.488281 -13.710938 4.28125 -14.890625 C 3.082031 -16.066406 2.484375 -17.640625 2.484375 -19.609375 C 2.484375 -20.828125 2.726562 -21.929688 3.21875 -22.921875 C 3.707031 -23.921875 4.390625 -24.773438 5.265625 -25.484375 C 6.148438 -26.203125 7.203125 -26.753906 8.421875 -27.140625 C 9.640625 -27.523438 10.988281 -27.71875 12.46875 -27.71875 C 14.09375 -27.71875 15.609375 -27.488281 17.015625 -27.03125 C 18.429688 -26.582031 19.707031 -25.90625 20.84375 -25 C 21.132812 -24.769531 21.332031 -24.503906 21.4375 -24.203125 C 21.539062 -23.910156 21.550781 -23.628906 21.46875 -23.359375 C 21.394531 -23.085938 21.257812 -22.859375 21.0625 -22.671875 C 20.863281 -22.492188 20.613281 -22.390625 20.3125 -22.359375 C 20.019531 -22.335938 19.695312 -22.441406 19.34375 -22.671875 C 18.300781 -23.453125 17.222656 -24.015625 16.109375 -24.359375 C 14.992188 -24.710938 13.765625 -24.890625 12.421875 -24.890625 C 11.046875 -24.890625 9.859375 -24.679688 8.859375 -24.265625 C 7.867188 -23.847656 7.09375 -23.242188 6.53125 -22.453125 C 5.976562 -21.671875 5.703125 -20.757812 5.703125 -19.71875 C 5.703125 -18.476562 6.082031 -17.492188 6.84375 -16.765625 C 7.613281 -16.046875 8.863281 -15.519531 10.59375 -15.1875 L 14.640625 -14.328125 C 17.253906 -13.785156 19.1875 -12.960938 20.4375 -11.859375 C 21.695312 -10.765625 22.328125 -9.269531 22.328125 -7.375 C 22.328125 -6.238281 22.09375 -5.191406 21.625 -4.234375 C 21.15625 -3.273438 20.476562 -2.453125 19.59375 -1.765625 C 18.71875 -1.078125 17.660156 -0.550781 16.421875 -0.1875 C 15.179688 0.164062 13.785156 0.34375 12.234375 0.34375 Z M 12.234375 0.34375 "/></g></g></g><g fill="#bbeeee" fill-opacity="1"><g transform="translate(61.590639, 192.460427)"><g><path d="M 11.6875 0.265625 C 11.195312 0.265625 10.804688 0.117188 10.515625 -0.171875 C 10.234375 -0.472656 10.09375 -0.878906 10.09375 -1.390625 L 10.09375 -24.609375 L 1.359375 -24.609375 C 0.890625 -24.609375 0.523438 -24.738281 0.265625 -25 C 0.015625 -25.257812 -0.109375 -25.597656 -0.109375 -26.015625 C -0.109375 -26.453125 0.015625 -26.785156 0.265625 -27.015625 C 0.523438 -27.253906 0.890625 -27.375 1.359375 -27.375 L 22.046875 -27.375 C 22.515625 -27.375 22.878906 -27.253906 23.140625 -27.015625 C 23.398438 -26.785156 23.53125 -26.453125 23.53125 -26.015625 C 23.53125 -25.578125 23.398438 -25.234375 23.140625 -24.984375 C 22.878906 -24.734375 22.515625 -24.609375 22.046875 -24.609375 L 13.3125 -24.609375 L 13.3125 -1.390625 C 13.3125 -0.878906 13.175781 -0.472656 12.90625 -0.171875 C 12.632812 0.117188 12.226562 0.265625 11.6875 0.265625 Z M 11.6875 0.265625 "/></g></g></g><g fill="#bbeeee" fill-opacity="1"><g transform="translate(84.965111, 192.460427)"><g><path d="M 4.96875 0.265625 C 4.445312 0.265625 4.050781 0.117188 3.78125 -0.171875 C 3.507812 -0.472656 3.375 -0.878906 3.375 -1.390625 L 3.375 -25.75 C 3.375 -26.289062 3.515625 -26.695312 3.796875 -26.96875 C 4.085938 -27.238281 4.492188 -27.375 5.015625 -27.375 L 14.21875 -27.375 C 17.132812 -27.375 19.378906 -26.6875 20.953125 -25.3125 C 22.535156 -23.945312 23.328125 -21.992188 23.328125 -19.453125 C 23.328125 -17.847656 22.972656 -16.457031 22.265625 -15.28125 C 21.554688 -14.101562 20.515625 -13.207031 19.140625 -12.59375 C 17.765625 -11.988281 16.125 -11.6875 14.21875 -11.6875 L 14.59375 -12.1875 L 15.375 -12.1875 C 16.382812 -12.1875 17.265625 -11.925781 18.015625 -11.40625 C 18.765625 -10.894531 19.453125 -10.070312 20.078125 -8.9375 L 23.796875 -1.984375 C 24.003906 -1.617188 24.101562 -1.257812 24.09375 -0.90625 C 24.082031 -0.5625 23.957031 -0.28125 23.71875 -0.0625 C 23.488281 0.15625 23.15625 0.265625 22.71875 0.265625 C 22.269531 0.265625 21.90625 0.164062 21.625 -0.03125 C 21.34375 -0.238281 21.097656 -0.539062 20.890625 -0.9375 L 16.65625 -8.78125 C 16.0625 -9.882812 15.375 -10.625 14.59375 -11 C 13.820312 -11.382812 12.800781 -11.578125 11.53125 -11.578125 L 6.5625 -11.578125 L 6.5625 -1.390625 C 6.5625 -0.878906 6.429688 -0.472656 6.171875 -0.171875 C 5.910156 0.117188 5.507812 0.265625 4.96875 0.265625 Z M 6.5625 -14.09375 L 13.75 -14.09375 C 15.863281 -14.09375 17.460938 -14.539062 18.546875 -15.4375 C 19.640625 -16.332031 20.1875 -17.671875 20.1875 -19.453125 C 20.1875 -21.179688 19.640625 -22.492188 18.546875 -23.390625 C 17.460938 -24.285156 15.863281 -24.734375 13.75 -24.734375 L 6.5625 -24.734375 Z M 6.5625 -14.09375 "/></g></g></g><g fill="#bbeeee" fill-opacity="1"><g transform="translate(110.941063, 192.460427)"><g><path d="M 14.875 0.34375 C 12.332031 0.34375 10.125 -0.226562 8.25 -1.375 C 6.375 -2.53125 4.925781 -4.15625 3.90625 -6.25 C 2.882812 -8.34375 2.375 -10.828125 2.375 -13.703125 C 2.375 -15.878906 2.660156 -17.828125 3.234375 -19.546875 C 3.816406 -21.265625 4.648438 -22.726562 5.734375 -23.9375 C 6.828125 -25.144531 8.144531 -26.078125 9.6875 -26.734375 C 11.226562 -27.390625 12.957031 -27.71875 14.875 -27.71875 C 17.457031 -27.71875 19.6875 -27.148438 21.5625 -26.015625 C 23.445312 -24.878906 24.898438 -23.269531 25.921875 -21.1875 C 26.941406 -19.101562 27.453125 -16.625 27.453125 -13.75 C 27.453125 -11.570312 27.15625 -9.613281 26.5625 -7.875 C 25.96875 -6.144531 25.125 -4.671875 24.03125 -3.453125 C 22.945312 -2.234375 21.632812 -1.296875 20.09375 -0.640625 C 18.550781 0.015625 16.8125 0.34375 14.875 0.34375 Z M 14.875 -2.484375 C 16.84375 -2.484375 18.503906 -2.921875 19.859375 -3.796875 C 21.222656 -4.679688 22.265625 -5.960938 22.984375 -7.640625 C 23.710938 -9.328125 24.078125 -11.347656 24.078125 -13.703125 C 24.078125 -17.253906 23.28125 -20.003906 21.6875 -21.953125 C 20.09375 -23.910156 17.820312 -24.890625 14.875 -24.890625 C 12.957031 -24.890625 11.316406 -24.445312 9.953125 -23.5625 C 8.597656 -22.6875 7.554688 -21.410156 6.828125 -19.734375 C 6.109375 -18.066406 5.75 -16.054688 5.75 -13.703125 C 5.75 -10.179688 6.550781 -7.429688 8.15625 -5.453125 C 9.757812 -3.472656 12 -2.484375 14.875 -2.484375 Z M 14.875 -2.484375 "/></g></g></g><g fill="#bbeeee" fill-opacity="1"><g transform="translate(220.444034, 215.64455)"><g><path d="M 4.96875 0.265625 C 4.445312 0.265625 4.050781 0.117188 3.78125 -0.171875 C 3.507812 -0.472656 3.375 -0.878906 3.375 -1.390625 L 3.375 -25.75 C 3.375 -26.289062 3.515625 -26.695312 3.796875 -26.96875 C 4.085938 -27.238281 4.492188 -27.375 5.015625 -27.375 L 14.21875 -27.375 C 17.132812 -27.375 19.378906 -26.65625 20.953125 -25.21875 C 22.535156 -23.78125 23.328125 -21.753906 23.328125 -19.140625 C 23.328125 -16.554688 22.535156 -14.535156 20.953125 -13.078125 C 19.378906 -11.628906 17.132812 -10.90625 14.21875 -10.90625 L 6.5625 -10.90625 L 6.5625 -1.390625 C 6.5625 -0.878906 6.429688 -0.472656 6.171875 -0.171875 C 5.910156 0.117188 5.507812 0.265625 4.96875 0.265625 Z M 6.5625 -13.59375 L 13.828125 -13.59375 C 15.921875 -13.59375 17.503906 -14.0625 18.578125 -15 C 19.648438 -15.945312 20.1875 -17.328125 20.1875 -19.140625 C 20.1875 -20.984375 19.648438 -22.375 18.578125 -23.3125 C 17.503906 -24.257812 15.921875 -24.734375 13.828125 -24.734375 L 6.5625 -24.734375 Z M 6.5625 -13.59375 "/></g></g></g><g fill="#bbeeee" fill-opacity="1"><g transform="translate(245.02218, 215.64455)"><g><path d="M 5.015625 0 C 4.492188 0 4.085938 -0.144531 3.796875 -0.4375 C 3.515625 -0.738281 3.375 -1.148438 3.375 -1.671875 L 3.375 -25.890625 C 3.375 -26.441406 3.507812 -26.859375 3.78125 -27.140625 C 4.050781 -27.421875 4.445312 -27.5625 4.96875 -27.5625 C 5.488281 -27.5625 5.882812 -27.421875 6.15625 -27.140625 C 6.425781 -26.859375 6.5625 -26.441406 6.5625 -25.890625 L 6.5625 -2.796875 L 19.296875 -2.796875 C 19.765625 -2.796875 20.125 -2.671875 20.375 -2.421875 C 20.632812 -2.179688 20.765625 -1.835938 20.765625 -1.390625 C 20.765625 -0.953125 20.632812 -0.609375 20.375 -0.359375 C 20.125 -0.117188 19.765625 0 19.296875 0 Z M 5.015625 0 "/></g></g></g><g fill="#bbeeee" fill-opacity="1"><g transform="translate(266.105804, 215.64455)"><g><path d="M 2.796875 0.265625 C 2.378906 0.265625 2.046875 0.171875 1.796875 -0.015625 C 1.554688 -0.210938 1.414062 -0.472656 1.375 -0.796875 C 1.332031 -1.117188 1.40625 -1.488281 1.59375 -1.90625 L 12.265625 -26.203125 C 12.503906 -26.722656 12.785156 -27.09375 13.109375 -27.3125 C 13.429688 -27.53125 13.785156 -27.640625 14.171875 -27.640625 C 14.554688 -27.640625 14.910156 -27.53125 15.234375 -27.3125 C 15.554688 -27.09375 15.820312 -26.722656 16.03125 -26.203125 L 26.75 -1.90625 C 26.957031 -1.488281 27.039062 -1.109375 27 -0.765625 C 26.96875 -0.429688 26.832031 -0.175781 26.59375 0 C 26.363281 0.175781 26.039062 0.265625 25.625 0.265625 C 25.15625 0.265625 24.78125 0.144531 24.5 -0.09375 C 24.21875 -0.34375 23.984375 -0.703125 23.796875 -1.171875 L 20.921875 -7.796875 L 22.484375 -6.984375 L 5.78125 -6.984375 L 7.375 -7.796875 L 4.546875 -1.171875 C 4.304688 -0.671875 4.054688 -0.304688 3.796875 -0.078125 C 3.546875 0.148438 3.210938 0.265625 2.796875 0.265625 Z M 14.140625 -23.640625 L 7.875 -8.9375 L 6.953125 -9.671875 L 21.3125 -9.671875 L 20.46875 -8.9375 L 14.21875 -23.640625 Z M 14.140625 -23.640625 "/></g></g></g><g fill="#bbeeee" fill-opacity="1"><g transform="translate(294.41144, 215.64455)"><g><path d="M 4.890625 0.265625 C 4.398438 0.265625 4.023438 0.128906 3.765625 -0.140625 C 3.503906 -0.410156 3.375 -0.800781 3.375 -1.3125 L 3.375 -26.015625 C 3.375 -26.535156 3.503906 -26.9375 3.765625 -27.21875 C 4.023438 -27.5 4.363281 -27.640625 4.78125 -27.640625 C 5.1875 -27.640625 5.488281 -27.566406 5.6875 -27.421875 C 5.882812 -27.285156 6.113281 -27.035156 6.375 -26.671875 L 23.296875 -4.109375 L 22.359375 -4.109375 L 22.359375 -26.09375 C 22.359375 -26.582031 22.488281 -26.960938 22.75 -27.234375 C 23.007812 -27.503906 23.382812 -27.640625 23.875 -27.640625 C 24.34375 -27.640625 24.695312 -27.503906 24.9375 -27.234375 C 25.1875 -26.960938 25.3125 -26.582031 25.3125 -26.09375 L 25.3125 -1.28125 C 25.3125 -0.789062 25.203125 -0.410156 24.984375 -0.140625 C 24.765625 0.128906 24.445312 0.265625 24.03125 0.265625 C 23.644531 0.265625 23.332031 0.1875 23.09375 0.03125 C 22.863281 -0.113281 22.617188 -0.359375 22.359375 -0.703125 L 5.46875 -23.265625 L 6.375 -23.265625 L 6.375 -1.3125 C 6.375 -0.800781 6.242188 -0.410156 5.984375 -0.140625 C 5.722656 0.128906 5.359375 0.265625 4.890625 0.265625 Z M 4.890625 0.265625 "/></g></g></g><g fill="#bbeeee" fill-opacity="1"><g transform="translate(323.14418, 215.64455)"><g><path d="M 5.125 0 C 4.550781 0 4.113281 -0.144531 3.8125 -0.4375 C 3.519531 -0.738281 3.375 -1.175781 3.375 -1.75 L 3.375 -25.625 C 3.375 -26.195312 3.519531 -26.628906 3.8125 -26.921875 C 4.113281 -27.222656 4.550781 -27.375 5.125 -27.375 L 19.5625 -27.375 C 20.007812 -27.375 20.347656 -27.253906 20.578125 -27.015625 C 20.804688 -26.785156 20.921875 -26.460938 20.921875 -26.046875 C 20.921875 -25.609375 20.804688 -25.269531 20.578125 -25.03125 C 20.347656 -24.800781 20.007812 -24.6875 19.5625 -24.6875 L 6.484375 -24.6875 L 6.484375 -15.21875 L 18.75 -15.21875 C 19.195312 -15.21875 19.535156 -15.109375 19.765625 -14.890625 C 19.992188 -14.671875 20.109375 -14.34375 20.109375 -13.90625 C 20.109375 -13.457031 19.992188 -13.117188 19.765625 -12.890625 C 19.535156 -12.660156 19.195312 -12.546875 18.75 -12.546875 L 6.484375 -12.546875 L 6.484375 -2.671875 L 19.5625 -2.671875 C 20.007812 -2.671875 20.347656 -2.554688 20.578125 -2.328125 C 20.804688 -2.097656 20.921875 -1.773438 20.921875 -1.359375 C 20.921875 -0.921875 20.804688 -0.582031 20.578125 -0.34375 C 20.347656 -0.113281 20.007812 0 19.5625 0 Z M 5.125 0 "/></g></g></g><g fill="#bbeeee" fill-opacity="1"><g transform="translate(345.78092, 215.64455)"><g><path d="M 11.6875 0.265625 C 11.195312 0.265625 10.804688 0.117188 10.515625 -0.171875 C 10.234375 -0.472656 10.09375 -0.878906 10.09375 -1.390625 L 10.09375 -24.609375 L 1.359375 -24.609375 C 0.890625 -24.609375 0.523438 -24.738281 0.265625 -25 C 0.015625 -25.257812 -0.109375 -25.597656 -0.109375 -26.015625 C -0.109375 -26.453125 0.015625 -26.785156 0.265625 -27.015625 C 0.523438 -27.253906 0.890625 -27.375 1.359375 -27.375 L 22.046875 -27.375 C 22.515625 -27.375 22.878906 -27.253906 23.140625 -27.015625 C 23.398438 -26.785156 23.53125 -26.453125 23.53125 -26.015625 C 23.53125 -25.578125 23.398438 -25.234375 23.140625 -24.984375 C 22.878906 -24.734375 22.515625 -24.609375 22.046875 -24.609375 L 13.3125 -24.609375 L 13.3125 -1.390625 C 13.3125 -0.878906 13.175781 -0.472656 12.90625 -0.171875 C 12.632812 0.117188 12.226562 0.265625 11.6875 0.265625 Z M 11.6875 0.265625 "/></g></g></g></svg>