<svg xmlns="http://www.w3.org/2000/svg" xmlns:xlink="http://www.w3.org/1999/xlink" width="500" zoomAndPan="magnify" viewBox="0 0 375 374.999991" height="500" preserveAspectRatio="xMidYMid meet" version="1.0"><defs><g/><clipPath id="2b9799afbc"><path d="M 208 154 L 300.859375 154 L 300.859375 210.441406 L 208 210.441406 Z M 208 154 " clip-rule="nonzero"/></clipPath><clipPath id="d402c703bf"><path d="M 167.785156 97 L 369.300781 97 L 369.300781 209 L 167.785156 209 Z M 167.785156 97 " clip-rule="nonzero"/></clipPath></defs><path fill="#bbeeee" d="M 311.621094 187.277344 C 320.046875 177.382812 325.175781 164.585938 325.175781 150.589844 C 325.175781 119.359375 299.769531 93.953125 268.542969 93.953125 C 241.714844 93.953125 219.230469 112.734375 213.421875 137.824219 C 212.460938 137.175781 211.511719 136.542969 210.597656 135.914062 C 217.160156 110.003906 240.625 90.734375 268.542969 90.734375 C 301.554688 90.734375 328.394531 117.59375 328.394531 150.589844 C 328.394531 164.933594 323.3125 178.109375 314.871094 188.429688 C 313.796875 188.066406 312.710938 187.671875 311.621094 187.277344 " fill-opacity="1" fill-rule="nonzero"/><g clip-path="url(#2b9799afbc)"><path fill="#bbeeee" d="M 268.542969 207.222656 C 278.796875 207.222656 288.394531 204.445312 296.707031 199.664062 C 297.988281 200.167969 299.234375 200.644531 300.496094 201.117188 C 291.25 206.988281 280.296875 210.441406 268.542969 210.441406 C 237.027344 210.441406 211.179688 185.9375 208.910156 154.992188 C 210.042969 155.71875 211.164062 156.441406 212.332031 157.167969 C 215.597656 185.304688 239.554688 207.222656 268.542969 207.222656 " fill-opacity="1" fill-rule="nonzero"/></g><g clip-path="url(#d402c703bf)"><path fill="#bbeeee" d="M 168.289062 102.980469 C 172.710938 94.113281 194.878906 98.546875 212.679688 103.816406 C 213.738281 104.132812 214.335938 105.238281 214.019531 106.277344 C 213.707031 107.335938 212.617188 107.933594 211.558594 107.621094 C 185.097656 99.761719 173.625 101.164062 171.824219 104.761719 C 169.964844 108.457031 176.007812 118.777344 199.140625 135.707031 C 215.140625 147.464844 236.507812 160.199219 259.292969 171.59375 C 281.308594 182.605469 302.738281 191.507812 321.246094 197.34375 C 350.644531 206.671875 363.316406 205.441406 365.257812 201.558594 C 367.152344 197.769531 360.839844 187.167969 336.757812 169.746094 C 335.875 169.113281 335.667969 167.867188 336.316406 166.984375 C 336.964844 166.101562 338.195312 165.894531 339.078125 166.542969 C 355.207031 178.203125 373.445312 194.0625 368.792969 203.324219 C 366.960938 207.003906 362.148438 208.4375 355.789062 208.4375 C 345.816406 208.4375 332.039062 204.917969 320.046875 201.117188 C 301.347656 195.230469 279.730469 186.234375 257.527344 175.140625 C 234.550781 163.65625 212.980469 150.777344 196.789062 138.910156 C 181.277344 127.550781 163.714844 112.085938 168.289062 102.980469 " fill-opacity="1" fill-rule="nonzero"/></g><g fill="#bbeeee" fill-opacity="1"><g transform="translate(14.776304, 197.128564)"><g><path d="M 11.71875 -10.265625 L 26.515625 -10.265625 L 19.109375 -24.328125 Z M 1.765625 0 L 16.765625 -27.46875 L 21.671875 -27.46875 L 36.9375 0 L 31.890625 0 L 28.390625 -6.765625 L 9.796875 -6.765625 L 6.296875 0 Z M 1.765625 0 "/></g></g></g><g fill="#bbeeee" fill-opacity="1"><g transform="translate(53.481668, 197.128564)"><g><path d="M 30.5625 -23.734375 L 11.125 -23.734375 L 11.125 -16.0625 L 28.4375 -16.0625 C 30.882812 -16.0625 32.554688 -15.609375 33.453125 -14.703125 C 34.359375 -13.804688 34.8125 -12.101562 34.8125 -9.59375 L 34.8125 -6.5 C 34.8125 -3.96875 34.367188 -2.25 33.484375 -1.34375 C 32.597656 -0.445312 30.914062 0 28.4375 0 L 12.40625 0 C 9.90625 0 8.203125 -0.453125 7.296875 -1.359375 C 6.398438 -2.273438 5.953125 -3.988281 5.953125 -6.5 L 5.953125 -7.25 L 10.21875 -8.234375 L 10.21875 -3.828125 L 30.671875 -3.828125 L 30.671875 -12.09375 L 13.40625 -12.09375 C 10.914062 -12.09375 9.226562 -12.546875 8.34375 -13.453125 C 7.457031 -14.359375 7.015625 -16.066406 7.015625 -18.578125 L 7.015625 -20.984375 C 7.015625 -23.492188 7.457031 -25.203125 8.34375 -26.109375 C 9.226562 -27.015625 10.914062 -27.46875 13.40625 -27.46875 L 28.046875 -27.46875 C 30.492188 -27.46875 32.179688 -27.019531 33.109375 -26.125 C 34.035156 -25.238281 34.5 -23.675781 34.5 -21.4375 L 34.5 -20.875 L 30.5625 -19.75 Z M 30.5625 -23.734375 "/></g></g></g><g fill="#bbeeee" fill-opacity="1"><g transform="translate(95.046394, 197.128564)"><g><path d="M 17.78125 -23.734375 L 17.78125 0 L 13.203125 0 L 13.203125 -23.734375 L 0.65625 -23.734375 L 0.65625 -27.46875 L 30.390625 -27.46875 L 30.390625 -23.734375 Z M 17.78125 -23.734375 "/></g></g></g><g fill="#bbeeee" fill-opacity="1"><g transform="translate(126.031474, 197.128564)"><g><path d="M 27.46875 -23.90625 L 11.71875 -23.90625 L 11.71875 -14.265625 L 27.46875 -14.265625 C 28.613281 -14.265625 29.394531 -14.472656 29.8125 -14.890625 C 30.226562 -15.304688 30.4375 -16.035156 30.4375 -17.078125 L 30.4375 -21.078125 C 30.4375 -22.117188 30.222656 -22.847656 29.796875 -23.265625 C 29.378906 -23.691406 28.601562 -23.90625 27.46875 -23.90625 Z M 7.125 0 L 7.125 -27.46875 L 29.265625 -27.46875 C 31.328125 -27.46875 32.8125 -27.046875 33.71875 -26.203125 C 34.632812 -25.367188 35.09375 -24.015625 35.09375 -22.140625 L 35.09375 -16.015625 C 35.09375 -14.160156 34.632812 -12.8125 33.71875 -11.96875 C 32.8125 -11.125 31.328125 -10.703125 29.265625 -10.703125 L 25.234375 -10.703125 L 37.796875 0 L 30.984375 0 L 19.8125 -10.703125 L 11.71875 -10.703125 L 11.71875 0 Z M 7.125 0 "/></g></g></g><g fill="#bbeeee" fill-opacity="1"><g transform="translate(166.60842, 197.128564)"><g><path d="M 11.328125 -3.828125 L 34.078125 -3.828125 L 34.078125 -23.734375 L 11.328125 -23.734375 Z M 6.765625 -20.984375 C 6.765625 -23.472656 7.207031 -25.175781 8.09375 -26.09375 C 8.988281 -27.007812 10.691406 -27.46875 13.203125 -27.46875 L 32.203125 -27.46875 C 34.679688 -27.46875 36.363281 -27.015625 37.25 -26.109375 C 38.144531 -25.203125 38.59375 -23.492188 38.59375 -20.984375 L 38.59375 -6.5 C 38.59375 -3.96875 38.144531 -2.25 37.25 -1.34375 C 36.363281 -0.445312 34.679688 0 32.203125 0 L 13.203125 0 C 10.691406 0 8.988281 -0.457031 8.09375 -1.375 C 7.207031 -2.289062 6.765625 -4 6.765625 -6.5 Z M 6.765625 -20.984375 "/></g></g></g><g fill="#bbeeee" fill-opacity="1"><g transform="translate(59.025521, 261.427684)"><g><path d="M 37.78125 -32.890625 L 16.125 -32.890625 L 16.125 -19.6875 L 37.78125 -19.6875 C 39.332031 -19.6875 40.398438 -19.984375 40.984375 -20.578125 C 41.566406 -21.179688 41.859375 -22.207031 41.859375 -23.65625 L 41.859375 -28.921875 C 41.859375 -30.367188 41.566406 -31.390625 40.984375 -31.984375 C 40.398438 -32.585938 39.332031 -32.890625 37.78125 -32.890625 Z M 9.796875 0 L 9.796875 -37.78125 L 40.25 -37.78125 C 43.082031 -37.78125 45.125 -37.203125 46.375 -36.046875 C 47.625 -34.890625 48.25 -33.023438 48.25 -30.453125 L 48.25 -22.015625 C 48.25 -19.460938 47.625 -17.609375 46.375 -16.453125 C 45.125 -15.296875 43.082031 -14.71875 40.25 -14.71875 L 16.125 -14.71875 L 16.125 0 Z M 9.796875 0 "/></g></g></g><g fill="#bbeeee" fill-opacity="1"><g transform="translate(112.890186, 261.427684)"><g><path d="M 9.796875 0 L 9.796875 -37.78125 L 16.125 -37.78125 L 16.125 -5.25 L 44.71875 -5.25 L 44.71875 0 Z M 9.796875 0 "/></g></g></g><g fill="#bbeeee" fill-opacity="1"><g transform="translate(160.678544, 261.427684)"><g><path d="M 16.125 -14.125 L 36.453125 -14.125 L 26.265625 -33.453125 Z M 2.4375 0 L 23.0625 -37.78125 L 29.8125 -37.78125 L 50.796875 0 L 43.859375 0 L 39.03125 -9.296875 L 13.46875 -9.296875 L 8.65625 0 Z M 2.4375 0 "/></g></g></g><g fill="#bbeeee" fill-opacity="1"><g transform="translate(213.899835, 261.427684)"><g><path d="M 9.796875 0 L 9.796875 -37.78125 L 13.765625 -37.78125 L 42.03125 -12.515625 C 42.675781 -11.941406 43.363281 -11.25 44.09375 -10.4375 C 44.820312 -9.625 45.566406 -8.726562 46.328125 -7.75 C 46.128906 -8.96875 45.984375 -10.238281 45.890625 -11.5625 C 45.796875 -12.882812 45.75 -14.710938 45.75 -17.046875 L 45.75 -37.78125 L 51.546875 -37.78125 L 51.546875 0 L 48 0 L 18.984375 -26.265625 C 18.835938 -26.390625 18.625 -26.582031 18.34375 -26.84375 C 16.90625 -28.132812 15.84375 -29.363281 15.15625 -30.53125 C 15.300781 -29.382812 15.40625 -28.160156 15.46875 -26.859375 C 15.539062 -25.554688 15.578125 -24.023438 15.578125 -22.265625 L 15.578125 0 Z M 9.796875 0 "/></g></g></g><g fill="#bbeeee" fill-opacity="1"><g transform="translate(275.234771, 261.427684)"><g><path d="M 9.796875 0 L 9.796875 -37.78125 L 46.1875 -37.78125 L 46.1875 -32.703125 L 16.125 -32.703125 L 16.125 -22.203125 L 34.5 -22.203125 L 34.5 -17.1875 L 16.125 -17.1875 L 16.125 -5.1875 L 46.46875 -5.1875 L 46.46875 0 Z M 9.796875 0 "/></g></g></g><g fill="#bbeeee" fill-opacity="1"><g transform="translate(326.919122, 261.427684)"><g><path d="M 24.453125 -32.640625 L 24.453125 0 L 18.15625 0 L 18.15625 -32.640625 L 0.890625 -32.640625 L 0.890625 -37.78125 L 41.78125 -37.78125 L 41.78125 -32.640625 Z M 24.453125 -32.640625 "/></g></g></g></svg>